<?xml version="1.0" encoding="UTF-8" standalone="no"?>
<!DOCTYPE svg PUBLIC "-//W3C//DTD SVG 1.1//EN" "http://www.w3.org/Graphics/SVG/1.1/DTD/svg11.dtd">
<svg width="100%" height="100%" viewBox="0 0 100 100" version="1.1" xmlns="http://www.w3.org/2000/svg" xmlns:xlink="http://www.w3.org/1999/xlink" xml:space="preserve" xmlns:serif="http://www.serif.com/" style="fill-rule:evenodd;clip-rule:evenodd;stroke-linejoin:round;stroke-miterlimit:2;">
    <g id="clock">
        <path d="M49.999,0C77.595,0 99.999,22.404 99.999,50C99.999,77.596 77.595,100 49.999,100C22.404,100 -0,77.596 -0,50C-0,22.404 22.404,0 49.999,0ZM49.999,4.975C74.827,4.975 94.984,25.15 94.984,50C94.984,74.85 74.827,95.025 49.999,95.025C25.172,95.025 5.015,74.85 5.015,50C5.015,25.15 25.172,4.975 49.999,4.975Z" style="fill:white;"/>
        <g transform="matrix(1,0,0,1,8.71945,8.29926)">
            <circle cx="41.28" cy="41.701" r="5.012" style="fill:white;"/>
        </g>
        <g transform="matrix(0.834585,0,0,1.15843,9.73737,2.48072)">
            <rect x="44.988" y="12.553" width="7.175" height="28.467" style="fill:white;"/>
        </g>
        <g transform="matrix(0.604307,0.604307,-0.604307,0.604307,60.0862,15.9553)">
            <rect x="17.702" y="33.511" width="50.028" height="6.006" style="fill:white;"/>
        </g>
    </g>
</svg>
