<?xml version="1.0" encoding="UTF-8" standalone="no"?>
<!DOCTYPE svg PUBLIC "-//W3C//DTD SVG 1.1//EN" "http://www.w3.org/Graphics/SVG/1.1/DTD/svg11.dtd">
<svg width="100%" height="100%" viewBox="0 0 1250 1250" version="1.1" xmlns="http://www.w3.org/2000/svg" xmlns:xlink="http://www.w3.org/1999/xlink" xml:space="preserve" xmlns:serif="http://www.serif.com/" style="fill-rule:evenodd;clip-rule:evenodd;stroke-linejoin:round;stroke-miterlimit:2;">
    <g transform="matrix(4.16667,0,0,4.16667,0,0)">
        <rect x="0" y="0" width="300" height="300" style="fill:#43757A;fill-rule:nonzero;"/>
        <path d="M250,87.974C242.642,91.238 234.733,93.443 226.434,94.435C234.904,89.357 241.411,81.316 244.475,71.734C236.546,76.436 227.765,79.851 218.418,81.691C210.934,73.716 200.27,68.734 188.468,68.734C165.808,68.734 147.435,87.105 147.435,109.765C147.435,112.98 147.798,116.112 148.498,119.116C114.396,117.404 84.161,101.069 63.923,76.244C60.391,82.304 58.368,89.353 58.368,96.873C58.368,111.108 65.611,123.667 76.622,131.025C69.896,130.812 63.568,128.966 58.037,125.893C58.033,126.064 58.033,126.236 58.033,126.409C58.033,146.29 72.177,162.873 90.947,166.644C87.504,167.581 83.879,168.083 80.137,168.083C77.493,168.083 74.923,167.825 72.417,167.347C77.639,183.647 92.792,195.512 110.748,195.842C96.705,206.848 79.012,213.407 59.788,213.407C56.476,213.407 53.21,213.213 50,212.833C68.158,224.476 89.727,231.27 112.899,231.27C188.372,231.27 229.645,168.745 229.645,114.522C229.645,112.744 229.604,110.974 229.525,109.214C237.543,103.429 244.499,96.203 250,87.974Z" style="fill:white;fill-rule:nonzero;"/>
    </g>
</svg>
